<svg width="276" height="50" viewBox="0 0 276 50" fill="none" xmlns="http://www.w3.org/2000/svg">
<rect width="276" height="50" rx="20" fill="#FFFDF8"/>
<path d="M257.375 33.375L253.45 29.4428L257.375 33.375ZM255.625 24.1875C255.625 26.16 254.841 28.0518 253.447 29.4466C252.052 30.8414 250.16 31.625 248.188 31.625C246.215 31.625 244.323 30.8414 242.928 29.4466C241.534 28.0518 240.75 26.16 240.75 24.1875C240.75 22.215 241.534 20.3232 242.928 18.9284C244.323 17.5336 246.215 16.75 248.188 16.75C250.16 16.75 252.052 17.5336 253.447 18.9284C254.841 20.3232 255.625 22.215 255.625 24.1875V24.1875Z" stroke="#8A8A8A" stroke-width="2" stroke-linecap="round"/>
<path d="M20.768 32.112C20.032 32.112 19.3707 31.984 18.784 31.728C18.208 31.4613 17.7547 31.0987 17.424 30.64C17.0933 30.1707 16.9227 29.632 16.912 29.024H18.464C18.5173 29.5467 18.7307 29.9893 19.104 30.352C19.488 30.704 20.0427 30.88 20.768 30.88C21.4613 30.88 22.0053 30.7093 22.4 30.368C22.8053 30.016 23.008 29.568 23.008 29.024C23.008 28.5973 22.8907 28.2507 22.656 27.984C22.4213 27.7173 22.128 27.5147 21.776 27.376C21.424 27.2373 20.9493 27.088 20.352 26.928C19.616 26.736 19.024 26.544 18.576 26.352C18.1387 26.16 17.76 25.8613 17.44 25.456C17.1307 25.04 16.976 24.4853 16.976 23.792C16.976 23.184 17.1307 22.6453 17.44 22.176C17.7493 21.7067 18.1813 21.344 18.736 21.088C19.3013 20.832 19.9467 20.704 20.672 20.704C21.7173 20.704 22.5707 20.9653 23.232 21.488C23.904 22.0107 24.2827 22.704 24.368 23.568H22.768C22.7147 23.1413 22.4907 22.768 22.096 22.448C21.7013 22.1173 21.1787 21.952 20.528 21.952C19.92 21.952 19.424 22.112 19.04 22.432C18.656 22.7413 18.464 23.1787 18.464 23.744C18.464 24.1493 18.576 24.48 18.8 24.736C19.0347 24.992 19.3173 25.1893 19.648 25.328C19.9893 25.456 20.464 25.6053 21.072 25.776C21.808 25.9787 22.4 26.1813 22.848 26.384C23.296 26.576 23.68 26.88 24 27.296C24.32 27.7013 24.48 28.256 24.48 28.96C24.48 29.504 24.336 30.016 24.048 30.496C23.76 30.976 23.3333 31.3653 22.768 31.664C22.2027 31.9627 21.536 32.112 20.768 32.112ZM34.6226 27.28C34.6226 27.5573 34.6066 27.8507 34.5746 28.16H27.5666C27.62 29.024 27.9133 29.7013 28.4466 30.192C28.9906 30.672 29.6466 30.912 30.4146 30.912C31.044 30.912 31.5666 30.768 31.9826 30.48C32.4093 30.1813 32.708 29.7867 32.8786 29.296H34.4466C34.212 30.1387 33.7426 30.8267 33.0386 31.36C32.3346 31.8827 31.46 32.144 30.4146 32.144C29.5826 32.144 28.836 31.9573 28.1746 31.584C27.524 31.2107 27.012 30.6827 26.6386 30C26.2653 29.3067 26.0786 28.5067 26.0786 27.6C26.0786 26.6933 26.26 25.8987 26.6226 25.216C26.9853 24.5333 27.492 24.0107 28.1426 23.648C28.804 23.2747 29.5613 23.088 30.4146 23.088C31.2466 23.088 31.9826 23.2693 32.6226 23.632C33.2626 23.9947 33.7533 24.496 34.0946 25.136C34.4466 25.7653 34.6226 26.48 34.6226 27.28ZM33.1186 26.976C33.1186 26.4213 32.996 25.9467 32.7506 25.552C32.5053 25.1467 32.1693 24.8427 31.7426 24.64C31.3266 24.4267 30.8626 24.32 30.3506 24.32C29.6146 24.32 28.9853 24.5547 28.4626 25.024C27.9506 25.4933 27.6573 26.144 27.5826 26.976H33.1186ZM36.0005 27.584C36.0005 26.688 36.1818 25.904 36.5445 25.232C36.9072 24.5493 37.4032 24.0213 38.0325 23.648C38.6725 23.2747 39.3818 23.088 40.1605 23.088C40.9285 23.088 41.5952 23.2533 42.1605 23.584C42.7258 23.9147 43.1472 24.3307 43.4245 24.832V23.232H44.8965V32H43.4245V30.368C43.1365 30.88 42.7045 31.3067 42.1285 31.648C41.5632 31.9787 40.9018 32.144 40.1445 32.144C39.3658 32.144 38.6618 31.952 38.0325 31.568C37.4032 31.184 36.9072 30.6453 36.5445 29.952C36.1818 29.2587 36.0005 28.4693 36.0005 27.584ZM43.4245 27.6C43.4245 26.9387 43.2912 26.3627 43.0245 25.872C42.7578 25.3813 42.3952 25.008 41.9365 24.752C41.4885 24.4853 40.9925 24.352 40.4485 24.352C39.9045 24.352 39.4085 24.48 38.9605 24.736C38.5125 24.992 38.1552 25.3653 37.8885 25.856C37.6218 26.3467 37.4885 26.9227 37.4885 27.584C37.4885 28.256 37.6218 28.8427 37.8885 29.344C38.1552 29.8347 38.5125 30.2133 38.9605 30.48C39.4085 30.736 39.9045 30.864 40.4485 30.864C40.9925 30.864 41.4885 30.736 41.9365 30.48C42.3952 30.2133 42.7578 29.8347 43.0245 29.344C43.2912 28.8427 43.4245 28.2613 43.4245 27.6ZM48.813 24.656C49.069 24.1547 49.4317 23.7653 49.901 23.488C50.381 23.2107 50.9623 23.072 51.645 23.072V24.576H51.261C49.629 24.576 48.813 25.4613 48.813 27.232V32H47.357V23.232H48.813V24.656ZM52.7818 27.6C52.7818 26.6933 52.9631 25.904 53.3258 25.232C53.6884 24.5493 54.1898 24.0213 54.8298 23.648C55.4804 23.2747 56.2218 23.088 57.0538 23.088C58.1311 23.088 59.0164 23.3493 59.7098 23.872C60.4138 24.3947 60.8778 25.12 61.1018 26.048H59.5338C59.3844 25.5147 59.0911 25.0933 58.6538 24.784C58.2271 24.4747 57.6938 24.32 57.0538 24.32C56.2218 24.32 55.5498 24.608 55.0378 25.184C54.5258 25.7493 54.2698 26.5547 54.2698 27.6C54.2698 28.656 54.5258 29.472 55.0378 30.048C55.5498 30.624 56.2218 30.912 57.0538 30.912C57.6938 30.912 58.2271 30.7627 58.6538 30.464C59.0804 30.1653 59.3738 29.7387 59.5338 29.184H61.1018C60.8671 30.08 60.3978 30.8 59.6938 31.344C58.9898 31.8773 58.1098 32.144 57.0538 32.144C56.2218 32.144 55.4804 31.9573 54.8298 31.584C54.1898 31.2107 53.6884 30.6827 53.3258 30C52.9631 29.3173 52.7818 28.5173 52.7818 27.6ZM67.3965 23.072C68.0578 23.072 68.6552 23.216 69.1885 23.504C69.7218 23.7813 70.1378 24.2027 70.4365 24.768C70.7458 25.3333 70.9005 26.0213 70.9005 26.832V32H69.4605V27.04C69.4605 26.1653 69.2418 25.4987 68.8045 25.04C68.3672 24.5707 67.7698 24.336 67.0125 24.336C66.2445 24.336 65.6312 24.576 65.1725 25.056C64.7245 25.536 64.5005 26.2347 64.5005 27.152V32H63.0445V20.16H64.5005V24.48C64.7885 24.032 65.1832 23.6853 65.6845 23.44C66.1965 23.1947 66.7672 23.072 67.3965 23.072ZM81.1125 24.432H79.2725V32H77.8165V24.432H76.6805V23.232H77.8165V22.608C77.8165 21.6267 78.0672 20.912 78.5685 20.464C79.0805 20.0053 79.8965 19.776 81.0165 19.776V20.992C80.3765 20.992 79.9232 21.12 79.6565 21.376C79.4005 21.6213 79.2725 22.032 79.2725 22.608V23.232H81.1125V24.432ZM86.6341 32.144C85.8128 32.144 85.0661 31.9573 84.3941 31.584C83.7328 31.2107 83.2101 30.6827 82.8261 30C82.4528 29.3067 82.2661 28.5067 82.2661 27.6C82.2661 26.704 82.4581 25.9147 82.8421 25.232C83.2368 24.5387 83.7701 24.0107 84.4421 23.648C85.1141 23.2747 85.8661 23.088 86.6981 23.088C87.5301 23.088 88.2821 23.2747 88.9541 23.648C89.6261 24.0107 90.1541 24.5333 90.5381 25.216C90.9328 25.8987 91.1301 26.6933 91.1301 27.6C91.1301 28.5067 90.9275 29.3067 90.5221 30C90.1275 30.6827 89.5888 31.2107 88.9061 31.584C88.2235 31.9573 87.4661 32.144 86.6341 32.144ZM86.6341 30.864C87.1568 30.864 87.6475 30.7413 88.1061 30.496C88.5648 30.2507 88.9328 29.8827 89.2101 29.392C89.4981 28.9013 89.6421 28.304 89.6421 27.6C89.6421 26.896 89.5035 26.2987 89.2261 25.808C88.9488 25.3173 88.5861 24.9547 88.1381 24.72C87.6901 24.4747 87.2048 24.352 86.6821 24.352C86.1488 24.352 85.6581 24.4747 85.2101 24.72C84.7728 24.9547 84.4208 25.3173 84.1541 25.808C83.8875 26.2987 83.7541 26.896 83.7541 27.6C83.7541 28.3147 83.8821 28.9173 84.1381 29.408C84.4048 29.8987 84.7568 30.2667 85.1941 30.512C85.6315 30.7467 86.1115 30.864 86.6341 30.864ZM94.5005 24.656C94.7565 24.1547 95.1192 23.7653 95.5885 23.488C96.0685 23.2107 96.6498 23.072 97.3325 23.072V24.576H96.9485C95.3165 24.576 94.5005 25.4613 94.5005 27.232V32H93.0445V23.232H94.5005V24.656ZM104.735 24.848C105.023 24.3467 105.45 23.9307 106.015 23.6C106.591 23.2587 107.258 23.088 108.015 23.088C108.794 23.088 109.498 23.2747 110.127 23.648C110.767 24.0213 111.268 24.5493 111.631 25.232C111.994 25.904 112.175 26.688 112.175 27.584C112.175 28.4693 111.994 29.2587 111.631 29.952C111.268 30.6453 110.767 31.184 110.127 31.568C109.498 31.952 108.794 32.144 108.015 32.144C107.268 32.144 106.607 31.9787 106.031 31.648C105.466 31.3067 105.034 30.8853 104.735 30.384V36.16H103.279V23.232H104.735V24.848ZM110.687 27.584C110.687 26.9227 110.554 26.3467 110.287 25.856C110.02 25.3653 109.658 24.992 109.199 24.736C108.751 24.48 108.255 24.352 107.711 24.352C107.178 24.352 106.682 24.4853 106.223 24.752C105.775 25.008 105.412 25.3867 105.135 25.888C104.868 26.3787 104.735 26.9493 104.735 27.6C104.735 28.2613 104.868 28.8427 105.135 29.344C105.412 29.8347 105.775 30.2133 106.223 30.48C106.682 30.736 107.178 30.864 107.711 30.864C108.255 30.864 108.751 30.736 109.199 30.48C109.658 30.2133 110.02 29.8347 110.287 29.344C110.554 28.8427 110.687 28.256 110.687 27.584ZM122.091 27.28C122.091 27.5573 122.075 27.8507 122.043 28.16H115.035C115.089 29.024 115.382 29.7013 115.915 30.192C116.459 30.672 117.115 30.912 117.883 30.912C118.513 30.912 119.035 30.768 119.451 30.48C119.878 30.1813 120.177 29.7867 120.347 29.296H121.915C121.681 30.1387 121.211 30.8267 120.507 31.36C119.803 31.8827 118.929 32.144 117.883 32.144C117.051 32.144 116.305 31.9573 115.643 31.584C114.993 31.2107 114.481 30.6827 114.107 30C113.734 29.3067 113.547 28.5067 113.547 27.6C113.547 26.6933 113.729 25.8987 114.091 25.216C114.454 24.5333 114.961 24.0107 115.611 23.648C116.273 23.2747 117.03 23.088 117.883 23.088C118.715 23.088 119.451 23.2693 120.091 23.632C120.731 23.9947 121.222 24.496 121.563 25.136C121.915 25.7653 122.091 26.48 122.091 27.28ZM120.587 26.976C120.587 26.4213 120.465 25.9467 120.219 25.552C119.974 25.1467 119.638 24.8427 119.211 24.64C118.795 24.4267 118.331 24.32 117.819 24.32C117.083 24.32 116.454 24.5547 115.931 25.024C115.419 25.4933 115.126 26.144 115.051 26.976H120.587ZM125.789 24.432V29.6C125.789 30.0267 125.88 30.3307 126.061 30.512C126.243 30.6827 126.557 30.768 127.005 30.768H128.077V32H126.765C125.955 32 125.347 31.8133 124.941 31.44C124.536 31.0667 124.333 30.4533 124.333 29.6V24.432H123.197V23.232H124.333V21.024H125.789V23.232H128.077V24.432H125.789ZM132.945 32.144C132.273 32.144 131.671 32.032 131.137 31.808C130.604 31.5733 130.183 31.2533 129.873 30.848C129.564 30.432 129.393 29.9573 129.361 29.424H130.865C130.908 29.8613 131.111 30.2187 131.473 30.496C131.847 30.7733 132.332 30.912 132.929 30.912C133.484 30.912 133.921 30.7893 134.241 30.544C134.561 30.2987 134.721 29.9893 134.721 29.616C134.721 29.232 134.551 28.9493 134.209 28.768C133.868 28.576 133.34 28.3893 132.625 28.208C131.975 28.0373 131.441 27.8667 131.025 27.696C130.62 27.5147 130.268 27.2533 129.969 26.912C129.681 26.56 129.537 26.1013 129.537 25.536C129.537 25.088 129.671 24.6773 129.937 24.304C130.204 23.9307 130.583 23.6373 131.073 23.424C131.564 23.2 132.124 23.088 132.753 23.088C133.724 23.088 134.508 23.3333 135.105 23.824C135.703 24.3147 136.023 24.9867 136.065 25.84H134.609C134.577 25.3813 134.391 25.0133 134.049 24.736C133.719 24.4587 133.271 24.32 132.705 24.32C132.183 24.32 131.767 24.432 131.457 24.656C131.148 24.88 130.993 25.1733 130.993 25.536C130.993 25.824 131.084 26.064 131.265 26.256C131.457 26.4373 131.692 26.5867 131.969 26.704C132.257 26.8107 132.652 26.9333 133.153 27.072C133.783 27.2427 134.295 27.4133 134.689 27.584C135.084 27.744 135.42 27.9893 135.697 28.32C135.985 28.6507 136.135 29.0827 136.145 29.616C136.145 30.096 136.012 30.528 135.745 30.912C135.479 31.296 135.1 31.6 134.609 31.824C134.129 32.0373 133.575 32.144 132.945 32.144ZM138.665 32.096C138.387 32.096 138.153 32 137.961 31.808C137.769 31.616 137.673 31.3813 137.673 31.104C137.673 30.8267 137.769 30.592 137.961 30.4C138.153 30.208 138.387 30.112 138.665 30.112C138.931 30.112 139.155 30.208 139.337 30.4C139.529 30.592 139.625 30.8267 139.625 31.104C139.625 31.3813 139.529 31.616 139.337 31.808C139.155 32 138.931 32.096 138.665 32.096ZM142.024 32.096C141.747 32.096 141.512 32 141.32 31.808C141.128 31.616 141.032 31.3813 141.032 31.104C141.032 30.8267 141.128 30.592 141.32 30.4C141.512 30.208 141.747 30.112 142.024 30.112C142.291 30.112 142.515 30.208 142.696 30.4C142.888 30.592 142.984 30.8267 142.984 31.104C142.984 31.3813 142.888 31.616 142.696 31.808C142.515 32 142.291 32.096 142.024 32.096ZM145.384 32.096C145.106 32.096 144.872 32 144.68 31.808C144.488 31.616 144.392 31.3813 144.392 31.104C144.392 30.8267 144.488 30.592 144.68 30.4C144.872 30.208 145.106 30.112 145.384 30.112C145.65 30.112 145.874 30.208 146.056 30.4C146.248 30.592 146.344 30.8267 146.344 31.104C146.344 31.3813 146.248 31.616 146.056 31.808C145.874 32 145.65 32.096 145.384 32.096Z" fill="#C4C4C4"/>
</svg>
