<svg width="353" height="39" viewBox="0 0 353 39" fill="none" xmlns="http://www.w3.org/2000/svg">
<path d="M93.774 15.718C93.774 14.494 94.05 13.396 94.602 12.424C95.154 11.44 95.904 10.672 96.852 10.12C97.812 9.568 98.874 9.292 100.038 9.292C101.406 9.292 102.6 9.622 103.62 10.282C104.64 10.942 105.384 11.878 105.852 13.09H103.89C103.542 12.334 103.038 11.752 102.378 11.344C101.73 10.936 100.95 10.732 100.038 10.732C99.162 10.732 98.376 10.936 97.68 11.344C96.984 11.752 96.438 12.334 96.042 13.09C95.646 13.834 95.448 14.71 95.448 15.718C95.448 16.714 95.646 17.59 96.042 18.346C96.438 19.09 96.984 19.666 97.68 20.074C98.376 20.482 99.162 20.686 100.038 20.686C100.95 20.686 101.73 20.488 102.378 20.092C103.038 19.684 103.542 19.102 103.89 18.346H105.852C105.384 19.546 104.64 20.476 103.62 21.136C102.6 21.784 101.406 22.108 100.038 22.108C98.874 22.108 97.812 21.838 96.852 21.298C95.904 20.746 95.154 19.984 94.602 19.012C94.05 18.04 93.774 16.942 93.774 15.718ZM112.592 22.162C111.668 22.162 110.828 21.952 110.072 21.532C109.328 21.112 108.74 20.518 108.308 19.75C107.888 18.97 107.678 18.07 107.678 17.05C107.678 16.042 107.894 15.154 108.326 14.386C108.77 13.606 109.37 13.012 110.126 12.604C110.882 12.184 111.728 11.974 112.664 11.974C113.6 11.974 114.446 12.184 115.202 12.604C115.958 13.012 116.552 13.6 116.984 14.368C117.428 15.136 117.65 16.03 117.65 17.05C117.65 18.07 117.422 18.97 116.966 19.75C116.522 20.518 115.916 21.112 115.148 21.532C114.38 21.952 113.528 22.162 112.592 22.162ZM112.592 20.722C113.18 20.722 113.732 20.584 114.248 20.308C114.764 20.032 115.178 19.618 115.49 19.066C115.814 18.514 115.976 17.842 115.976 17.05C115.976 16.258 115.82 15.586 115.508 15.034C115.196 14.482 114.788 14.074 114.284 13.81C113.78 13.534 113.234 13.396 112.646 13.396C112.046 13.396 111.494 13.534 110.99 13.81C110.498 14.074 110.102 14.482 109.802 15.034C109.502 15.586 109.352 16.258 109.352 17.05C109.352 17.854 109.496 18.532 109.784 19.084C110.084 19.636 110.48 20.05 110.972 20.326C111.464 20.59 112.004 20.722 112.592 20.722ZM121.442 13.738C121.73 13.174 122.138 12.736 122.666 12.424C123.206 12.112 123.86 11.956 124.628 11.956V13.648H124.196C122.36 13.648 121.442 14.644 121.442 16.636V22H119.804V12.136H121.442V13.738ZM130.587 11.974C131.439 11.974 132.183 12.16 132.819 12.532C133.467 12.904 133.947 13.372 134.259 13.936V12.136H135.915V22.216C135.915 23.116 135.723 23.914 135.339 24.61C134.955 25.318 134.403 25.87 133.683 26.266C132.975 26.662 132.147 26.86 131.199 26.86C129.903 26.86 128.823 26.554 127.959 25.942C127.095 25.33 126.585 24.496 126.429 23.44H128.049C128.229 24.04 128.601 24.52 129.165 24.88C129.729 25.252 130.407 25.438 131.199 25.438C132.099 25.438 132.831 25.156 133.395 24.592C133.971 24.028 134.259 23.236 134.259 22.216V20.146C133.935 20.722 133.455 21.202 132.819 21.586C132.183 21.97 131.439 22.162 130.587 22.162C129.711 22.162 128.913 21.946 128.193 21.514C127.485 21.082 126.927 20.476 126.519 19.696C126.111 18.916 125.907 18.028 125.907 17.032C125.907 16.024 126.111 15.142 126.519 14.386C126.927 13.618 127.485 13.024 128.193 12.604C128.913 12.184 129.711 11.974 130.587 11.974ZM134.259 17.05C134.259 16.306 134.109 15.658 133.809 15.106C133.509 14.554 133.101 14.134 132.585 13.846C132.081 13.546 131.523 13.396 130.911 13.396C130.299 13.396 129.741 13.54 129.237 13.828C128.733 14.116 128.331 14.536 128.031 15.088C127.731 15.64 127.581 16.288 127.581 17.032C127.581 17.788 127.731 18.448 128.031 19.012C128.331 19.564 128.733 19.99 129.237 20.29C129.741 20.578 130.299 20.722 130.911 20.722C131.523 20.722 132.081 20.578 132.585 20.29C133.101 19.99 133.509 19.564 133.809 19.012C134.109 18.448 134.259 17.794 134.259 17.05ZM139.529 10.534C139.217 10.534 138.953 10.426 138.737 10.21C138.521 9.994 138.413 9.73 138.413 9.418C138.413 9.106 138.521 8.842 138.737 8.626C138.953 8.41 139.217 8.302 139.529 8.302C139.829 8.302 140.081 8.41 140.285 8.626C140.501 8.842 140.609 9.106 140.609 9.418C140.609 9.73 140.501 9.994 140.285 10.21C140.081 10.426 139.829 10.534 139.529 10.534ZM140.321 12.136V22H138.683V12.136H140.321ZM152.123 25.348C150.971 24.22 150.071 22.786 149.423 21.046C148.787 19.306 148.469 17.428 148.469 15.412C148.469 13.348 148.805 11.422 149.477 9.634C150.161 7.834 151.133 6.352 152.393 5.188H154.103V5.35C152.759 6.61 151.745 8.128 151.061 9.904C150.389 11.668 150.053 13.504 150.053 15.412C150.053 17.272 150.371 19.048 151.007 20.74C151.655 22.432 152.597 23.914 153.833 25.186V25.348H152.123ZM155.617 20.686C157.141 19.462 158.335 18.46 159.199 17.68C160.063 16.888 160.789 16.066 161.377 15.214C161.977 14.35 162.277 13.504 162.277 12.676C162.277 11.896 162.085 11.284 161.701 10.84C161.329 10.384 160.723 10.156 159.883 10.156C159.067 10.156 158.431 10.414 157.975 10.93C157.531 11.434 157.291 12.112 157.255 12.964H155.671C155.719 11.62 156.127 10.582 156.895 9.85C157.663 9.118 158.653 8.752 159.865 8.752C161.101 8.752 162.079 9.094 162.799 9.778C163.531 10.462 163.897 11.404 163.897 12.604C163.897 13.6 163.597 14.572 162.997 15.52C162.409 16.456 161.737 17.284 160.981 18.004C160.225 18.712 159.259 19.54 158.083 20.488H164.275V21.856H155.617V20.686ZM183.1 11.956C183.868 11.956 184.552 12.118 185.152 12.442C185.752 12.754 186.226 13.228 186.574 13.864C186.922 14.5 187.096 15.274 187.096 16.186V22H185.476V16.42C185.476 15.436 185.23 14.686 184.738 14.17C184.258 13.642 183.604 13.378 182.776 13.378C181.924 13.378 181.246 13.654 180.742 14.206C180.238 14.746 179.986 15.532 179.986 16.564V22H178.366V16.42C178.366 15.436 178.12 14.686 177.628 14.17C177.148 13.642 176.494 13.378 175.666 13.378C174.814 13.378 174.136 13.654 173.632 14.206C173.128 14.746 172.876 15.532 172.876 16.564V22H171.238V12.136H172.876V13.558C173.2 13.042 173.632 12.646 174.172 12.37C174.724 12.094 175.33 11.956 175.99 11.956C176.818 11.956 177.55 12.142 178.186 12.514C178.822 12.886 179.296 13.432 179.608 14.152C179.884 13.456 180.34 12.916 180.976 12.532C181.612 12.148 182.32 11.956 183.1 11.956ZM194.084 22.162C193.16 22.162 192.32 21.952 191.564 21.532C190.82 21.112 190.232 20.518 189.8 19.75C189.38 18.97 189.17 18.07 189.17 17.05C189.17 16.042 189.386 15.154 189.818 14.386C190.262 13.606 190.862 13.012 191.618 12.604C192.374 12.184 193.22 11.974 194.156 11.974C195.092 11.974 195.938 12.184 196.694 12.604C197.45 13.012 198.044 13.6 198.476 14.368C198.92 15.136 199.142 16.03 199.142 17.05C199.142 18.07 198.914 18.97 198.458 19.75C198.014 20.518 197.408 21.112 196.64 21.532C195.872 21.952 195.02 22.162 194.084 22.162ZM194.084 20.722C194.672 20.722 195.224 20.584 195.74 20.308C196.256 20.032 196.67 19.618 196.982 19.066C197.306 18.514 197.468 17.842 197.468 17.05C197.468 16.258 197.312 15.586 197 15.034C196.688 14.482 196.28 14.074 195.776 13.81C195.272 13.534 194.726 13.396 194.138 13.396C193.538 13.396 192.986 13.534 192.482 13.81C191.99 14.074 191.594 14.482 191.294 15.034C190.994 15.586 190.844 16.258 190.844 17.05C190.844 17.854 190.988 18.532 191.276 19.084C191.576 19.636 191.972 20.05 192.464 20.326C192.956 20.59 193.496 20.722 194.084 20.722ZM206.102 11.956C207.302 11.956 208.274 12.322 209.018 13.054C209.762 13.774 210.134 14.818 210.134 16.186V22H208.514V16.42C208.514 15.436 208.268 14.686 207.776 14.17C207.284 13.642 206.612 13.378 205.76 13.378C204.896 13.378 204.206 13.648 203.69 14.188C203.186 14.728 202.934 15.514 202.934 16.546V22H201.296V12.136H202.934V13.54C203.258 13.036 203.696 12.646 204.248 12.37C204.812 12.094 205.43 11.956 206.102 11.956ZM214.808 13.486V19.3C214.808 19.78 214.91 20.122 215.114 20.326C215.318 20.518 215.672 20.614 216.176 20.614H217.382V22H215.906C214.994 22 214.31 21.79 213.854 21.37C213.398 20.95 213.17 20.26 213.17 19.3V13.486H211.892V12.136H213.17V9.652H214.808V12.136H217.382V13.486H214.808ZM224.262 11.956C225.006 11.956 225.678 12.118 226.278 12.442C226.878 12.754 227.346 13.228 227.682 13.864C228.03 14.5 228.204 15.274 228.204 16.186V22H226.584V16.42C226.584 15.436 226.338 14.686 225.846 14.17C225.354 13.642 224.682 13.378 223.83 13.378C222.966 13.378 222.276 13.648 221.76 14.188C221.256 14.728 221.004 15.514 221.004 16.546V22H219.366V8.68H221.004V13.54C221.328 13.036 221.772 12.646 222.336 12.37C222.912 12.094 223.554 11.956 224.262 11.956ZM234.372 22.162C233.616 22.162 232.938 22.036 232.338 21.784C231.738 21.52 231.264 21.16 230.916 20.704C230.568 20.236 230.376 19.702 230.34 19.102H232.032C232.08 19.594 232.308 19.996 232.716 20.308C233.136 20.62 233.682 20.776 234.354 20.776C234.978 20.776 235.47 20.638 235.83 20.362C236.19 20.086 236.37 19.738 236.37 19.318C236.37 18.886 236.178 18.568 235.794 18.364C235.41 18.148 234.816 17.938 234.012 17.734C233.28 17.542 232.68 17.35 232.212 17.158C231.756 16.954 231.36 16.66 231.024 16.276C230.7 15.88 230.538 15.364 230.538 14.728C230.538 14.224 230.688 13.762 230.988 13.342C231.288 12.922 231.714 12.592 232.266 12.352C232.818 12.1 233.448 11.974 234.156 11.974C235.248 11.974 236.13 12.25 236.802 12.802C237.474 13.354 237.834 14.11 237.882 15.07H236.244C236.208 14.554 235.998 14.14 235.614 13.828C235.242 13.516 234.738 13.36 234.102 13.36C233.514 13.36 233.046 13.486 232.698 13.738C232.35 13.99 232.176 14.32 232.176 14.728C232.176 15.052 232.278 15.322 232.482 15.538C232.698 15.742 232.962 15.91 233.274 16.042C233.598 16.162 234.042 16.3 234.606 16.456C235.314 16.648 235.89 16.84 236.334 17.032C236.778 17.212 237.156 17.488 237.468 17.86C237.792 18.232 237.96 18.718 237.972 19.318C237.972 19.858 237.822 20.344 237.522 20.776C237.222 21.208 236.796 21.55 236.244 21.802C235.704 22.042 235.08 22.162 234.372 22.162ZM239.762 25.348V25.186C240.998 23.914 241.934 22.432 242.57 20.74C243.218 19.048 243.542 17.272 243.542 15.412C243.542 13.504 243.2 11.668 242.516 9.904C241.844 8.128 240.836 6.61 239.492 5.35V5.188H241.202C242.462 6.352 243.428 7.834 244.1 9.634C244.784 11.422 245.126 13.348 245.126 15.412C245.126 17.428 244.802 19.306 244.154 21.046C243.518 22.786 242.624 24.22 241.472 25.348H239.762Z" fill="black"/>
<path d="M352.354 19.3536C352.549 19.1583 352.549 18.8417 352.354 18.6464L349.172 15.4645C348.976 15.2692 348.66 15.2692 348.464 15.4645C348.269 15.6597 348.269 15.9763 348.464 16.1716L351.293 19L348.464 21.8284C348.269 22.0237 348.269 22.3403 348.464 22.5355C348.66 22.7308 348.976 22.7308 349.172 22.5355L352.354 19.3536ZM0.646447 18.6464C0.451184 18.8417 0.451184 19.1583 0.646447 19.3536L3.82843 22.5355C4.02369 22.7308 4.34027 22.7308 4.53553 22.5355C4.7308 22.3403 4.7308 22.0237 4.53553 21.8284L1.70711 19L4.53553 16.1716C4.7308 15.9763 4.7308 15.6597 4.53553 15.4645C4.34027 15.2692 4.02369 15.2692 3.82843 15.4645L0.646447 18.6464ZM321 19.5H352V18.5H321V19.5ZM32 18.5H1V19.5H32V18.5Z" fill="black"/>
</svg>
